<?xml version="1.0" encoding="utf-8"?>
<!-- Generator: Adobe Illustrator 15.1.0, SVG Export Plug-In . SVG Version: 6.00 Build 0)  -->
<!DOCTYPE svg PUBLIC "-//W3C//DTD SVG 1.1//EN" "http://www.w3.org/Graphics/SVG/1.1/DTD/svg11.dtd">
<svg version="1.1" id="Layer_1" xmlns="http://www.w3.org/2000/svg" xmlns:xlink="http://www.w3.org/1999/xlink" x="0px" y="0px"
	 width="120px" height="80px" viewBox="0 0 120 80" enable-background="new 0 0 120 80" xml:space="preserve">
<path fill="#FFFFFF" d="M14.008,60.058c0,1.058-1.353,1.913-3.022,1.913l0,0c-1.669,0-3.022-0.855-3.022-1.913V18.773
	c0-1.057,1.353-1.914,3.022-1.914l0,0c1.67,0,3.022,0.857,3.022,1.914V60.058z"/>
<path fill="#FFFFFF" d="M114.108,39.161c0,1.833-1.584,3.317-3.538,3.317H12.976c-1.954,0-3.538-1.484-3.538-3.317l0,0
	c0-1.832,1.584-3.317,3.538-3.317h97.595C112.524,35.844,114.108,37.33,114.108,39.161L114.108,39.161z"/>
<path fill="none" stroke="#000000" stroke-width="4" stroke-miterlimit="10" d="M110.57,35.844"/>
<path fill="none" stroke="#FFFFFF" stroke-width="4" stroke-miterlimit="10" d="M75.663,18.511c0,10.861,16.221,19.65,36.266,19.65"
	/>
<path fill="none" stroke="#FFFFFF" stroke-width="4" stroke-miterlimit="10" d="M75.663,60.003c0-10.861,16.221-19.65,36.266-19.65"
	/>
</svg>
